<?xml version="1.0" encoding="UTF-8"?> <svg xmlns="http://www.w3.org/2000/svg" width="158" height="158" viewBox="0 0 158 158" fill="none"> <path d="M97.7841 114.476C98.7496 113.831 100.086 114.245 100.483 115.311L115.494 155.694C115.977 156.992 114.76 158.284 113.373 157.945L58.1046 144.441C56.6181 144.078 56.2657 142.196 57.5265 141.354L97.7841 114.476Z" fill="blue"></path> <path d="M107.479 105.563C107.41 105.376 107.375 105.179 107.375 104.981V64.2827C107.375 63.1315 106.227 62.3042 105.082 62.6304L57.7227 76.1282C56.578 76.4545 55.43 75.6271 55.43 74.4759V48.1736C55.43 47.6359 55.6902 47.129 56.1336 46.8031L117.849 1.44548C118.707 0.815085 119.944 1.05579 120.481 1.95764L157.763 64.549C158.027 64.9924 158.073 65.5261 157.889 66.0056L126.5 147.747C125.921 149.255 123.706 149.244 123.143 147.73L107.479 105.563Z" fill="blue"></path> <path d="M39.6273 4.97311C39.9253 4.6916 40.3162 4.51958 40.732 4.48687L97.6933 0.00641345C99.4725 -0.133541 100.341 2.05255 98.9201 3.09497L50.3691 38.7155C49.9197 39.0452 49.3352 39.1506 48.7927 38.9998L16.8215 30.1117C15.5065 29.7461 15.0886 28.1486 16.0664 27.2251L39.6273 4.97311Z" fill="blue"></path> <path d="M7.92208 39.0553C8.05826 38.0044 9.13601 37.3197 10.1909 37.6138L44.0742 47.0621C44.8385 47.2752 45.3645 47.95 45.3645 48.7173V86.9714C45.3645 88.123 46.5135 88.9505 47.6584 88.6234L94.6891 75.1855C95.8341 74.8583 96.983 75.6858 96.983 76.8374V101.136C96.983 101.7 96.6966 102.229 96.2162 102.551L43.4652 137.912C42.7773 138.374 41.8494 138.312 41.2338 137.764L0.574661 101.561C0.151172 101.184 -0.057671 100.633 0.0138096 100.081L7.92208 39.0553Z" fill="blue"></path> </svg> 